<?xml version="1.0" encoding="UTF-8"?>
<!DOCTYPE svg PUBLIC "-//W3C//DTD SVG 1.1//EN" "https://www.w3.org/Graphics/SVG/1.1/DTD/svg11.dtd">
<svg version="1.2" width="149.76mm" height="39.37mm" viewBox="6225 5762 14976 3937" preserveAspectRatio="xMidYMid" fill-rule="evenodd" stroke-width="28.222" stroke-linejoin="round" xmlns="https://www.w3.org/2000/svg" xmlns:ooo="https://xml.openoffice.org/svg/export" xmlns:xlink="https://www.w3.org/1999/xlink" xmlns:presentation="https://sun.com/xmlns/staroffice/presentation" xmlns:smil="https://www.w3.org/2001/SMIL20/" xmlns:anim="urn:oasis:names:tc:opendocument:xmlns:animation:1.0" xml:space="preserve">
 <defs class="EmbeddedBulletChars">
  <g id="bullet-char-template-57356" transform="scale(0.00048828125,-0.00048828125)">
   <path d="M 580,1141 L 1163,571 580,0 -4,571 580,1141 Z"/>
  </g>
  <g id="bullet-char-template-57354" transform="scale(0.00048828125,-0.00048828125)">
   <path d="M 8,1128 L 1137,1128 1137,0 8,0 8,1128 Z"/>
  </g>
  <g id="bullet-char-template-10146" transform="scale(0.00048828125,-0.00048828125)">
   <path d="M 174,0 L 602,739 174,1481 1456,739 174,0 Z M 1358,739 L 309,1346 659,739 1358,739 Z"/>
  </g>
  <g id="bullet-char-template-10132" transform="scale(0.00048828125,-0.00048828125)">
   <path d="M 2015,739 L 1276,0 717,0 1260,543 174,543 174,936 1260,936 717,1481 1274,1481 2015,739 Z"/>
  </g>
  <g id="bullet-char-template-10007" transform="scale(0.00048828125,-0.00048828125)">
   <path d="M 0,-2 C -7,14 -16,27 -25,37 L 356,567 C 262,823 215,952 215,954 215,979 228,992 255,992 264,992 276,990 289,987 310,991 331,999 354,1012 L 381,999 492,748 772,1049 836,1024 860,1049 C 881,1039 901,1025 922,1006 886,937 835,863 770,784 769,783 710,716 594,584 L 774,223 C 774,196 753,168 711,139 L 727,119 C 717,90 699,76 672,76 641,76 570,178 457,381 L 164,-76 C 142,-110 111,-127 72,-127 30,-127 9,-110 8,-76 1,-67 -2,-52 -2,-32 -2,-23 -1,-13 0,-2 Z"/>
  </g>
  <g id="bullet-char-template-10004" transform="scale(0.00048828125,-0.00048828125)">
   <path d="M 285,-33 C 182,-33 111,30 74,156 52,228 41,333 41,471 41,549 55,616 82,672 116,743 169,778 240,778 293,778 328,747 346,684 L 369,508 C 377,444 397,411 428,410 L 1163,1116 C 1174,1127 1196,1133 1229,1133 1271,1133 1292,1118 1292,1087 L 1292,965 C 1292,929 1282,901 1262,881 L 442,47 C 390,-6 338,-33 285,-33 Z"/>
  </g>
  <g id="bullet-char-template-9679" transform="scale(0.00048828125,-0.00048828125)">
   <path d="M 813,0 C 632,0 489,54 383,161 276,268 223,411 223,592 223,773 276,916 383,1023 489,1130 632,1184 813,1184 992,1184 1136,1130 1245,1023 1353,916 1407,772 1407,592 1407,412 1353,268 1245,161 1136,54 992,0 813,0 Z"/>
  </g>
  <g id="bullet-char-template-8226" transform="scale(0.00048828125,-0.00048828125)">
   <path d="M 346,457 C 273,457 209,483 155,535 101,586 74,649 74,723 74,796 101,859 155,911 209,963 273,989 346,989 419,989 480,963 531,910 582,859 608,796 608,723 608,648 583,586 532,535 482,483 420,457 346,457 Z"/>
  </g>
  <g id="bullet-char-template-8211" transform="scale(0.00048828125,-0.00048828125)">
   <path d="M -4,459 L 1135,459 1135,606 -4,606 -4,459 Z"/>
  </g>
  <g id="bullet-char-template-61548" transform="scale(0.00048828125,-0.00048828125)">
   <path d="M 173,740 C 173,903 231,1043 346,1159 462,1274 601,1332 765,1332 928,1332 1067,1274 1183,1159 1299,1043 1357,903 1357,740 1357,577 1299,437 1183,322 1067,206 928,148 765,148 601,148 462,206 346,322 231,437 173,577 173,740 Z"/>
  </g>
 </defs>
 <g class="Page">
  <g class="com.sun.star.drawing.ClosedBezierShape">
   <g id="id3">
    <rect class="BoundingBox" stroke="none" fill="none" x="6541" y="6700" width="2860" height="2999"/>
    <path fill="rgb(55,55,55)" stroke="none" d="M 7872,9697 C 7326,9697 6848,9416 6579,8993 L 6888,8838 C 7102,9139 7459,9338 7865,9338 8519,9338 9048,8821 9048,8183 9048,7547 8519,7032 7865,7032 7424,7032 7041,7266 6838,7613 L 6541,7466 C 6801,7009 7299,6700 7872,6700 8716,6700 9400,7369 9400,8197 9400,9026 8716,9697 7872,9697 Z"/>
   </g>
  </g>
  <g class="com.sun.star.drawing.ClosedBezierShape">
   <g id="id4">
    <rect class="BoundingBox" stroke="none" fill="none" x="7738" y="7349" width="356" height="1732"/>
    <path fill="rgb(240,76,35)" stroke="none" d="M 7838,7349 L 7992,7349 C 8050,7349 8093,7392 8093,7447 L 8093,8980 C 8093,9036 8050,9079 7992,9079 L 7838,9079 C 7782,9079 7738,9036 7738,8980 L 7738,7447 C 7738,7392 7782,7349 7838,7349 Z"/>
   </g>
  </g>
  <g class="com.sun.star.drawing.PolyPolygonShape">
   <g id="id5">
    <rect class="BoundingBox" stroke="none" fill="none" x="6225" y="7632" width="1255" height="1245"/>
    <path fill="rgb(240,76,35)" stroke="none" d="M 6231,8876 L 6225,7632 7478,8249 6231,8876 Z"/>
   </g>
  </g>
  <g class="com.sun.star.drawing.PolyPolygonShape">
   <g id="id6">
    <rect class="BoundingBox" stroke="none" fill="none" x="10200" y="7251" width="398" height="2112"/>
    <path fill="rgb(55,55,55)" stroke="none" d="M 10200,9362 L 10200,7251 10596,7251 10596,9362 10200,9362 Z"/>
   </g>
  </g>
  <g class="com.sun.star.drawing.ClosedBezierShape">
   <g id="id7">
    <rect class="BoundingBox" stroke="none" fill="none" x="10792" y="7251" width="1339" height="2112"/>
    <path fill="rgb(55,55,55)" stroke="none" d="M 11736,7251 L 12130,7251 12130,9362 11719,9362 11413,8612 C 11307,8361 11223,8103 11131,7771 L 11122,7771 C 11140,7945 11155,8158 11166,8374 11179,8585 11186,8797 11186,8966 L 11186,9362 10792,9362 10792,7251 11201,7251 11507,8017 C 11609,8262 11692,8515 11789,8858 L 11793,8858 C 11780,8667 11767,8462 11754,8257 11743,8055 11736,7852 11736,7663 L 11736,7251 Z"/>
   </g>
  </g>
  <g class="com.sun.star.drawing.PolyPolygonShape">
   <g id="id8">
    <rect class="BoundingBox" stroke="none" fill="none" x="12311" y="7251" width="1110" height="2112"/>
    <path fill="rgb(55,55,55)" stroke="none" d="M 12311,9362 L 12311,7251 13420,7251 13420,7559 12703,7559 12703,8092 13191,8090 13282,8405 12703,8403 12703,9052 13420,9052 13420,9362 12311,9362 Z"/>
   </g>
  </g>
  <g class="com.sun.star.drawing.ClosedBezierShape">
   <g id="id9">
    <rect class="BoundingBox" stroke="none" fill="none" x="13504" y="7200" width="1289" height="2214"/>
    <path fill="rgb(55,55,55)" stroke="none" d="M 14792,8611 C 14789,8651 14787,8693 14785,8732 14765,9118 14635,9413 14195,9413 13546,9413 13504,9001 13504,8440 L 13504,8136 C 13519,7599 13561,7200 14195,7200 14547,7204 14745,7385 14772,7744 14778,7790 14781,7832 14781,7876 L 14781,7905 14391,7905 C 14373,7770 14389,7517 14195,7517 13927,7517 13909,7790 13909,7971 L 13909,8636 C 13909,8809 13924,9093 14195,9093 14411,9093 14384,8746 14393,8611 L 14792,8611 Z"/>
   </g>
  </g>
  <g class="com.sun.star.drawing.ClosedBezierShape">
   <g id="id10">
    <rect class="BoundingBox" stroke="none" fill="none" x="14897" y="7200" width="1382" height="2214"/>
    <path fill="rgb(55,55,55)" stroke="none" d="M 15300,8636 C 15300,8809 15315,9093 15588,9093 15868,9093 15872,8805 15872,8603 L 15872,8032 C 15872,7852 15863,7517 15588,7517 15317,7517 15300,7790 15300,7971 L 15300,8048 15300,8636 Z M 15300,8636 L 15300,8636 Z M 14897,8136 C 14912,7599 14954,7200 15588,7200 16218,7200 16259,7599 16277,8136 L 16277,8440 C 16277,9001 16233,9413 15588,9413 14939,9413 14897,9001 14897,8440 L 14897,8136 Z"/>
   </g>
  </g>
  <g class="com.sun.star.drawing.PolyPolygonShape">
   <g id="id11">
    <rect class="BoundingBox" stroke="none" fill="none" x="16446" y="7251" width="1129" height="2112"/>
    <path fill="rgb(55,55,55)" stroke="none" d="M 16446,9362 L 16446,7251 16838,7251 16838,9052 17573,9052 17573,9362 16446,9362 Z"/>
   </g>
  </g>
  <g class="com.sun.star.drawing.ClosedBezierShape">
   <g id="id12">
    <rect class="BoundingBox" stroke="none" fill="none" x="17793" y="7211" width="1818" height="2112"/>
    <path fill="rgb(55,55,55)" stroke="none" d="M 18185,9322 L 17793,9322 17793,7211 18418,7211 18629,8189 C 18665,8351 18687,8514 18704,8677 L 18711,8677 C 18731,8470 18744,8329 18772,8189 L 18984,7211 19609,7211 19609,9322 19215,9322 19215,8658 C 19215,8237 19224,7816 19248,7398 L 19243,7398 18821,9322 18579,9322 18165,7398 18152,7398 C 18178,7816 18185,8237 18185,8658 L 18185,9322 Z"/>
   </g>
  </g>
  <g class="com.sun.star.drawing.ClosedBezierShape">
   <g id="id13">
    <rect class="BoundingBox" stroke="none" fill="none" x="19686" y="7251" width="1515" height="2112"/>
    <path fill="rgb(55,55,55)" stroke="none" d="M 20245,8634 L 20613,8517 20505,7916 C 20485,7819 20478,7722 20465,7623 20463,7577 20459,7528 20452,7484 L 20448,7484 C 20439,7528 20432,7577 20430,7623 20419,7722 20410,7819 20390,7916 L 20245,8634 Z M 20245,8634 L 20245,8634 Z M 19686,9362 L 20188,7251 20723,7251 21200,9362 20778,9362 20674,8827 20183,8973 20106,9362 19686,9362 Z"/>
   </g>
  </g>
  <g class="com.sun.star.drawing.CustomShape">
   <g id="id14">
    <rect class="BoundingBox" stroke="none" fill="none" x="12270" y="5762" width="6526" height="1190"/>
    <path fill="rgb(55,55,55)" stroke="none" d="M 12732,6951 L 12677,6948 12652,6945 12626,6941 12602,6936 12578,6929 12556,6922 12534,6912 12512,6903 12492,6891 12473,6879 12454,6865 12437,6851 12420,6834 12404,6817 12388,6799 12374,6779 12361,6758 12337,6713 12316,6663 12300,6608 12287,6548 12278,6484 12273,6415 12271,6340 12273,6266 12279,6197 12283,6164 12289,6133 12295,6103 12303,6076 12312,6049 12321,6023 12331,5999 12343,5976 12355,5954 12368,5934 12381,5914 12397,5896 12412,5879 12428,5862 12445,5848 12464,5834 12482,5822 12501,5811 12522,5801 12542,5792 12563,5785 12585,5779 12607,5774 12629,5769 12652,5766 12675,5763 12698,5762 12722,5762 12761,5762 12781,5764 12799,5766 12817,5769 12836,5772 12854,5775 12871,5780 12888,5786 12906,5791 12923,5798 12940,5806 12957,5815 12975,5823 12991,5833 13008,5844 12938,6022 12903,6001 12872,5984 12858,5978 12845,5972 12833,5967 12822,5963 12811,5959 12800,5956 12789,5954 12778,5953 12764,5951 12752,5950 12739,5949 12726,5949 12712,5949 12698,5951 12685,5952 12672,5954 12660,5958 12649,5962 12637,5967 12626,5971 12616,5978 12606,5984 12597,5992 12588,6000 12579,6009 12571,6019 12564,6029 12557,6040 12551,6052 12545,6064 12534,6093 12525,6125 12516,6160 12511,6199 12506,6243 12504,6290 12503,6340 12504,6391 12507,6439 12511,6484 12517,6526 12526,6563 12536,6597 12548,6629 12561,6657 12568,6670 12576,6682 12586,6693 12594,6704 12604,6713 12614,6721 12624,6730 12635,6737 12646,6743 12659,6748 12671,6753 12684,6757 12698,6760 12713,6761 12727,6763 12742,6763 12757,6763 12773,6762 12787,6761 12799,6760 12811,6758 12823,6756 12833,6753 12844,6749 12854,6746 12865,6740 12891,6728 12922,6711 12957,6690 13024,6861 13007,6872 12991,6883 12975,6892 12958,6901 12941,6909 12925,6916 12908,6923 12890,6928 12873,6933 12855,6938 12836,6941 12816,6945 12796,6947 12776,6949 12754,6951 12732,6951 Z M 13591,5786 L 13679,6044 13757,6295 13833,6572 13920,6927 13694,6927 13661,6763 13637,6652 13324,6652 13301,6763 13268,6927 13049,6927 13133,6572 13210,6295 13289,6044 13377,5786 13591,5786 Z M 13481,6089 L 13434,6245 13370,6472 13592,6472 13529,6244 13481,6089 Z M 14612,6743 L 14612,6927 14017,6927 14017,5786 14241,5786 14241,6743 14612,6743 Z M 15535,6356 L 15532,6431 15529,6466 15525,6500 15520,6533 15514,6565 15506,6595 15498,6623 15488,6650 15478,6676 15465,6700 15453,6723 15439,6746 15424,6766 15407,6786 15390,6804 15372,6821 15353,6837 15333,6852 15312,6865 15291,6877 15267,6888 15244,6898 15219,6907 15194,6914 15169,6921 15142,6926 15116,6931 15088,6934 15060,6937 15030,6938 15001,6938 14971,6938 14939,6937 14872,6930 14799,6919 14722,6904 14722,5808 14878,5782 14910,5778 14940,5775 14970,5775 14999,5774 15029,5775 15058,5775 15087,5778 15115,5782 15142,5786 15169,5791 15194,5798 15219,5805 15244,5814 15267,5824 15291,5835 15312,5847 15332,5861 15353,5876 15372,5892 15390,5909 15407,5927 15424,5947 15439,5967 15453,5989 15465,6012 15478,6036 15488,6062 15498,6090 15506,6118 15514,6148 15520,6179 15525,6212 15529,6246 15532,6281 15535,6356 Z M 15301,6356 L 15300,6302 15297,6254 15292,6209 15288,6188 15284,6169 15278,6150 15273,6132 15268,6117 15262,6101 15256,6086 15249,6073 15241,6060 15233,6049 15224,6038 15214,6028 15204,6019 15193,6010 15182,6002 15170,5995 15156,5989 15143,5983 15129,5979 15114,5974 15098,5971 15081,5968 15063,5966 15045,5964 15026,5963 15006,5963 14995,5963 14984,5964 14961,5965 14956,5965 14951,5965 14947,5965 14946,5965 14944,5964 14943,5964 14942,5964 14941,5963 14940,5963 14940,5962 14940,5962 14940,5962 14939,5961 14939,5961 14939,5961 14939,5960 14939,5960 14939,6752 14939,6752 14939,6751 14939,6751 14939,6751 14940,6750 14940,6750 14940,6750 14940,6750 14941,6749 14941,6749 14942,6749 14943,6748 14944,6748 14946,6748 14947,6748 14951,6748 14956,6748 14961,6748 14973,6749 14984,6749 15004,6749 15024,6749 15044,6748 15063,6746 15080,6745 15098,6742 15113,6738 15128,6733 15142,6729 15155,6723 15169,6718 15181,6710 15192,6703 15203,6694 15213,6685 15223,6675 15232,6664 15240,6653 15248,6640 15255,6627 15262,6612 15268,6597 15274,6581 15279,6564 15284,6545 15288,6526 15292,6505 15297,6460 15300,6410 15301,6356 Z M 15699,6927 L 15699,5786 16297,5786 16297,5970 15923,5970 15923,6240 16261,6240 16261,6420 15923,6420 15923,6743 16324,6743 16324,6927 15699,6927 Z M 16471,5809 L 16544,5794 16613,5784 16645,5780 16677,5777 16706,5776 16736,5775 16759,5775 16781,5776 16803,5778 16824,5781 16845,5784 16866,5787 16886,5791 16905,5796 16925,5802 16943,5808 16960,5815 16978,5822 16995,5831 17011,5841 17026,5850 17041,5861 17055,5872 17067,5885 17079,5898 17091,5912 17101,5927 17111,5943 17120,5960 17128,5977 17135,5994 17141,6013 17146,6033 17151,6053 17154,6075 17156,6097 17158,6120 17158,6144 17157,6173 17155,6201 17151,6227 17145,6254 17138,6277 17129,6300 17119,6322 17107,6341 17093,6360 17080,6377 17067,6391 17054,6405 17041,6418 17027,6428 17014,6436 17008,6440 17001,6443 17001,6443 17001,6443 17001,6443 17002,6444 17003,6446 17009,6458 17033,6499 17098,6618 17163,6753 17180,6790 17197,6831 17214,6878 17233,6928 17007,6928 16953,6802 16895,6686 16834,6576 16809,6531 16800,6515 16793,6504 16792,6504 16791,6504 16789,6505 16781,6505 16758,6507 16698,6508 16691,6508 16691,6928 16471,6928 16471,5809 Z M 16691,6328 L 16720,6328 16746,6327 16769,6325 16791,6322 16811,6318 16830,6312 16838,6309 16846,6306 16855,6302 16862,6297 16869,6293 16876,6288 16882,6282 16888,6277 16893,6270 16898,6264 16903,6256 16907,6249 16910,6240 16915,6232 16920,6213 16924,6192 16926,6169 16927,6144 16926,6117 16925,6104 16924,6093 16922,6082 16920,6073 16917,6062 16913,6054 16909,6046 16906,6037 16902,6030 16897,6023 16893,6017 16888,6010 16882,6005 16877,6000 16871,5995 16865,5992 16858,5987 16850,5984 16843,5980 16835,5978 16826,5975 16818,5972 16809,5970 16800,5967 16791,5967 16780,5965 16770,5964 16759,5964 16737,5963 16705,5963 16696,5963 16693,5964 16692,5964 16691,5964 16691,6328 Z M 17785,5786 L 17874,6044 17952,6295 18028,6572 18115,6927 17889,6927 17856,6763 17832,6652 17519,6652 17496,6763 17463,6927 17244,6927 17328,6572 17405,6295 17484,6044 17572,5786 17785,5786 Z M 17676,6089 L 17629,6245 17565,6472 17786,6472 17723,6244 17676,6089 Z M 18409,6766 L 18428,6765 18445,6764 18462,6760 18477,6757 18485,6754 18491,6752 18498,6748 18504,6746 18510,6742 18516,6737 18521,6733 18526,6729 18531,6724 18535,6719 18539,6714 18543,6708 18548,6703 18551,6697 18554,6692 18556,6685 18561,6672 18564,6657 18565,6642 18566,6626 18566,6618 18565,6610 18564,6601 18563,6593 18561,6585 18559,6578 18556,6570 18553,6564 18546,6551 18541,6544 18537,6538 18533,6531 18528,6525 18523,6519 18518,6514 18513,6508 18507,6501 18501,6496 18495,6490 18488,6486 18480,6480 18473,6474 18466,6470 18403,6428 18320,6373 18309,6365 18299,6358 18287,6350 18277,6341 18267,6333 18257,6323 18238,6303 18228,6293 18219,6281 18211,6270 18203,6259 18195,6247 18188,6234 18181,6221 18175,6208 18168,6194 18164,6179 18159,6163 18156,6148 18153,6131 18152,6115 18150,6097 18150,6079 18150,6062 18152,6045 18154,6027 18157,6011 18161,5994 18165,5979 18172,5964 18178,5949 18185,5934 18193,5920 18201,5907 18210,5894 18220,5881 18230,5870 18242,5858 18254,5847 18266,5837 18279,5828 18292,5818 18307,5811 18322,5803 18336,5796 18352,5789 18369,5784 18385,5779 18402,5775 18419,5771 18438,5767 18455,5765 18473,5763 18492,5762 18511,5762 18529,5762 18547,5762 18564,5764 18581,5766 18598,5768 18615,5771 18630,5775 18646,5778 18661,5783 18678,5788 18694,5794 18710,5801 18726,5807 18744,5816 18760,5824 18777,5833 18702,6006 18670,5987 18643,5972 18630,5967 18619,5962 18607,5957 18598,5954 18589,5952 18580,5950 18571,5948 18561,5947 18552,5946 18541,5945 18531,5944 18521,5944 18505,5945 18489,5946 18473,5949 18459,5952 18446,5956 18440,5959 18434,5962 18428,5965 18423,5968 18417,5972 18412,5976 18407,5980 18403,5984 18399,5989 18395,5994 18392,5999 18389,6005 18386,6010 18383,6016 18381,6022 18379,6029 18376,6043 18375,6057 18374,6073 18374,6082 18375,6090 18376,6100 18377,6107 18379,6116 18381,6123 18384,6131 18387,6137 18391,6144 18394,6150 18398,6157 18403,6163 18407,6170 18412,6175 18418,6182 18424,6187 18430,6193 18436,6199 18442,6204 18449,6210 18456,6215 18463,6220 18471,6226 18479,6230 18551,6274 18571,6286 18591,6300 18633,6328 18644,6336 18654,6343 18664,6351 18675,6360 18694,6377 18712,6397 18721,6407 18729,6418 18738,6429 18746,6441 18753,6453 18760,6465 18766,6478 18772,6491 18777,6505 18782,6519 18786,6535 18789,6550 18792,6567 18794,6583 18795,6600 18795,6619 18795,6636 18794,6651 18792,6667 18790,6683 18787,6699 18783,6714 18778,6730 18773,6745 18767,6760 18760,6774 18753,6787 18744,6801 18735,6815 18724,6827 18714,6839 18702,6851 18690,6862 18677,6873 18662,6883 18647,6893 18632,6901 18616,6910 18598,6918 18581,6924 18563,6930 18543,6936 18524,6940 18504,6944 18482,6947 18460,6949 18438,6951 18414,6951 18393,6951 18373,6950 18352,6948 18333,6946 18314,6943 18297,6940 18278,6937 18262,6932 18246,6927 18228,6921 18211,6914 18194,6907 18176,6898 18157,6889 18121,6869 18194,6696 18230,6716 18262,6733 18289,6745 18302,6749 18313,6753 18324,6756 18334,6759 18346,6761 18358,6763 18370,6764 18383,6765 18396,6766 18409,6766 Z"/>
   </g>
  </g>
 </g>
</svg>