<?xml version="1.0" encoding="UTF-8"?>
<!DOCTYPE svg PUBLIC "-//W3C//DTD SVG 1.1//EN" "https://www.w3.org/Graphics/SVG/1.1/DTD/svg11.dtd">
<svg version="1.2" width="149.76mm" height="39.3mm" viewBox="6226 10869 14976 3930" preserveAspectRatio="xMidYMid" fill-rule="evenodd" stroke-width="28.222" stroke-linejoin="round" xmlns="https://www.w3.org/2000/svg" xmlns:ooo="https://xml.openoffice.org/svg/export" xmlns:xlink="https://www.w3.org/1999/xlink" xmlns:presentation="https://sun.com/xmlns/staroffice/presentation" xmlns:smil="https://www.w3.org/2001/SMIL20/" xmlns:anim="urn:oasis:names:tc:opendocument:xmlns:animation:1.0" xml:space="preserve">
 <defs class="EmbeddedBulletChars">
  <g id="bullet-char-template-57356" transform="scale(0.00048828125,-0.00048828125)">
   <path d="M 580,1141 L 1163,571 580,0 -4,571 580,1141 Z"/>
  </g>
  <g id="bullet-char-template-57354" transform="scale(0.00048828125,-0.00048828125)">
   <path d="M 8,1128 L 1137,1128 1137,0 8,0 8,1128 Z"/>
  </g>
  <g id="bullet-char-template-10146" transform="scale(0.00048828125,-0.00048828125)">
   <path d="M 174,0 L 602,739 174,1481 1456,739 174,0 Z M 1358,739 L 309,1346 659,739 1358,739 Z"/>
  </g>
  <g id="bullet-char-template-10132" transform="scale(0.00048828125,-0.00048828125)">
   <path d="M 2015,739 L 1276,0 717,0 1260,543 174,543 174,936 1260,936 717,1481 1274,1481 2015,739 Z"/>
  </g>
  <g id="bullet-char-template-10007" transform="scale(0.00048828125,-0.00048828125)">
   <path d="M 0,-2 C -7,14 -16,27 -25,37 L 356,567 C 262,823 215,952 215,954 215,979 228,992 255,992 264,992 276,990 289,987 310,991 331,999 354,1012 L 381,999 492,748 772,1049 836,1024 860,1049 C 881,1039 901,1025 922,1006 886,937 835,863 770,784 769,783 710,716 594,584 L 774,223 C 774,196 753,168 711,139 L 727,119 C 717,90 699,76 672,76 641,76 570,178 457,381 L 164,-76 C 142,-110 111,-127 72,-127 30,-127 9,-110 8,-76 1,-67 -2,-52 -2,-32 -2,-23 -1,-13 0,-2 Z"/>
  </g>
  <g id="bullet-char-template-10004" transform="scale(0.00048828125,-0.00048828125)">
   <path d="M 285,-33 C 182,-33 111,30 74,156 52,228 41,333 41,471 41,549 55,616 82,672 116,743 169,778 240,778 293,778 328,747 346,684 L 369,508 C 377,444 397,411 428,410 L 1163,1116 C 1174,1127 1196,1133 1229,1133 1271,1133 1292,1118 1292,1087 L 1292,965 C 1292,929 1282,901 1262,881 L 442,47 C 390,-6 338,-33 285,-33 Z"/>
  </g>
  <g id="bullet-char-template-9679" transform="scale(0.00048828125,-0.00048828125)">
   <path d="M 813,0 C 632,0 489,54 383,161 276,268 223,411 223,592 223,773 276,916 383,1023 489,1130 632,1184 813,1184 992,1184 1136,1130 1245,1023 1353,916 1407,772 1407,592 1407,412 1353,268 1245,161 1136,54 992,0 813,0 Z"/>
  </g>
  <g id="bullet-char-template-8226" transform="scale(0.00048828125,-0.00048828125)">
   <path d="M 346,457 C 273,457 209,483 155,535 101,586 74,649 74,723 74,796 101,859 155,911 209,963 273,989 346,989 419,989 480,963 531,910 582,859 608,796 608,723 608,648 583,586 532,535 482,483 420,457 346,457 Z"/>
  </g>
  <g id="bullet-char-template-8211" transform="scale(0.00048828125,-0.00048828125)">
   <path d="M -4,459 L 1135,459 1135,606 -4,606 -4,459 Z"/>
  </g>
  <g id="bullet-char-template-61548" transform="scale(0.00048828125,-0.00048828125)">
   <path d="M 173,740 C 173,903 231,1043 346,1159 462,1274 601,1332 765,1332 928,1332 1067,1274 1183,1159 1299,1043 1357,903 1357,740 1357,577 1299,437 1183,322 1067,206 928,148 765,148 601,148 462,206 346,322 231,437 173,577 173,740 Z"/>
  </g>
 </defs>
 <g class="Page">
  <g class="com.sun.star.drawing.ClosedBezierShape">
   <g id="id3">
    <rect class="BoundingBox" stroke="none" fill="none" x="6542" y="11801" width="2860" height="2998"/>
    <path fill="rgb(221,221,221)" stroke="none" d="M 7873,14798 C 7327,14798 6849,14517 6580,14094 L 6889,13939 C 7103,14240 7460,14439 7866,14439 8520,14439 9049,13922 9049,13284 9049,12648 8520,12133 7866,12133 7425,12133 7042,12367 6839,12714 L 6542,12567 C 6802,12110 7300,11801 7873,11801 8717,11801 9401,12470 9401,13298 9401,14127 8717,14798 7873,14798 Z"/>
   </g>
  </g>
  <g class="com.sun.star.drawing.ClosedBezierShape">
   <g id="id4">
    <rect class="BoundingBox" stroke="none" fill="none" x="7739" y="12450" width="356" height="1732"/>
    <path fill="rgb(240,76,35)" stroke="none" d="M 7839,12450 L 7993,12450 C 8051,12450 8094,12493 8094,12548 L 8094,14081 C 8094,14137 8051,14180 7993,14180 L 7839,14180 C 7783,14180 7739,14137 7739,14081 L 7739,12548 C 7739,12493 7783,12450 7839,12450 Z"/>
   </g>
  </g>
  <g class="com.sun.star.drawing.PolyPolygonShape">
   <g id="id5">
    <rect class="BoundingBox" stroke="none" fill="none" x="6226" y="12733" width="1255" height="1245"/>
    <path fill="rgb(240,76,35)" stroke="none" d="M 6232,13977 L 6226,12733 7479,13350 6232,13977 Z"/>
   </g>
  </g>
  <g class="com.sun.star.drawing.PolyPolygonShape">
   <g id="id6">
    <rect class="BoundingBox" stroke="none" fill="none" x="10201" y="12352" width="398" height="2112"/>
    <path fill="rgb(221,221,221)" stroke="none" d="M 10201,14463 L 10201,12352 10597,12352 10597,14463 10201,14463 Z"/>
   </g>
  </g>
  <g class="com.sun.star.drawing.ClosedBezierShape">
   <g id="id7">
    <rect class="BoundingBox" stroke="none" fill="none" x="10793" y="12352" width="1339" height="2112"/>
    <path fill="rgb(221,221,221)" stroke="none" d="M 11737,12352 L 12131,12352 12131,14463 11720,14463 11414,13713 C 11308,13462 11224,13204 11132,12872 L 11123,12872 C 11141,13046 11156,13259 11167,13475 11180,13686 11187,13898 11187,14067 L 11187,14463 10793,14463 10793,12352 11202,12352 11508,13118 C 11610,13363 11693,13616 11790,13959 L 11794,13959 C 11781,13768 11768,13563 11755,13358 11744,13156 11737,12953 11737,12764 L 11737,12352 Z"/>
   </g>
  </g>
  <g class="com.sun.star.drawing.PolyPolygonShape">
   <g id="id8">
    <rect class="BoundingBox" stroke="none" fill="none" x="12312" y="12352" width="1110" height="2112"/>
    <path fill="rgb(221,221,221)" stroke="none" d="M 12312,14463 L 12312,12352 13421,12352 13421,12660 12704,12660 12704,13193 13192,13191 13283,13506 12704,13504 12704,14153 13421,14153 13421,14463 12312,14463 Z"/>
   </g>
  </g>
  <g class="com.sun.star.drawing.ClosedBezierShape">
   <g id="id9">
    <rect class="BoundingBox" stroke="none" fill="none" x="13505" y="12301" width="1289" height="2214"/>
    <path fill="rgb(221,221,221)" stroke="none" d="M 14793,13712 C 14790,13752 14788,13794 14786,13833 14766,14219 14636,14514 14196,14514 13547,14514 13505,14102 13505,13541 L 13505,13237 C 13520,12700 13562,12301 14196,12301 14548,12305 14746,12486 14773,12845 14779,12891 14782,12933 14782,12977 L 14782,13006 14392,13006 C 14374,12871 14390,12618 14196,12618 13928,12618 13910,12891 13910,13072 L 13910,13737 C 13910,13910 13925,14194 14196,14194 14412,14194 14385,13847 14394,13712 L 14793,13712 Z"/>
   </g>
  </g>
  <g class="com.sun.star.drawing.ClosedBezierShape">
   <g id="id10">
    <rect class="BoundingBox" stroke="none" fill="none" x="14898" y="12301" width="1382" height="2214"/>
    <path fill="rgb(221,221,221)" stroke="none" d="M 15301,13737 C 15301,13910 15316,14194 15589,14194 15869,14194 15873,13906 15873,13704 L 15873,13133 C 15873,12953 15864,12618 15589,12618 15318,12618 15301,12891 15301,13072 L 15301,13149 15301,13737 Z M 15301,13737 L 15301,13737 Z M 14898,13237 C 14913,12700 14955,12301 15589,12301 16219,12301 16260,12700 16278,13237 L 16278,13541 C 16278,14102 16234,14514 15589,14514 14940,14514 14898,14102 14898,13541 L 14898,13237 Z"/>
   </g>
  </g>
  <g class="com.sun.star.drawing.PolyPolygonShape">
   <g id="id11">
    <rect class="BoundingBox" stroke="none" fill="none" x="16447" y="12352" width="1129" height="2112"/>
    <path fill="rgb(221,221,221)" stroke="none" d="M 16447,14463 L 16447,12352 16839,12352 16839,14153 17574,14153 17574,14463 16447,14463 Z"/>
   </g>
  </g>
  <g class="com.sun.star.drawing.ClosedBezierShape">
   <g id="id12">
    <rect class="BoundingBox" stroke="none" fill="none" x="17754" y="12352" width="1817" height="2112"/>
    <path fill="rgb(221,221,221)" stroke="none" d="M 18146,14463 L 17754,14463 17754,12352 18379,12352 18590,13330 C 18626,13492 18648,13655 18665,13818 L 18672,13818 C 18692,13611 18705,13470 18733,13330 L 18945,12352 19570,12352 19570,14463 19176,14463 19176,13799 C 19176,13378 19185,12957 19209,12539 L 19204,12539 18782,14463 18540,14463 18126,12539 18113,12539 C 18139,12957 18146,13378 18146,13799 L 18146,14463 Z"/>
   </g>
  </g>
  <g class="com.sun.star.drawing.ClosedBezierShape">
   <g id="id13">
    <rect class="BoundingBox" stroke="none" fill="none" x="19687" y="12352" width="1515" height="2112"/>
    <path fill="rgb(221,221,221)" stroke="none" d="M 20246,13735 L 20614,13618 20506,13017 C 20486,12920 20479,12823 20466,12724 20464,12678 20460,12629 20453,12585 L 20449,12585 C 20440,12629 20433,12678 20431,12724 20420,12823 20411,12920 20391,13017 L 20246,13735 Z M 20246,13735 L 20246,13735 Z M 19687,14463 L 20189,12352 20724,12352 21201,14463 20779,14463 20675,13928 20184,14074 20107,14463 19687,14463 Z"/>
   </g>
  </g>
  <g class="com.sun.star.drawing.CustomShape">
   <g id="id14">
    <rect class="BoundingBox" stroke="none" fill="none" x="12271" y="10869" width="6526" height="1191"/>
    <path fill="rgb(221,221,221)" stroke="none" d="M 12733,12059 L 12678,12056 12653,12053 12627,12049 12603,12044 12579,12037 12557,12030 12535,12020 12513,12011 12493,11999 12474,11987 12455,11973 12438,11959 12421,11942 12405,11925 12389,11907 12375,11887 12362,11866 12338,11821 12317,11771 12301,11716 12288,11656 12279,11592 12274,11523 12272,11448 12274,11374 12280,11305 12284,11272 12290,11241 12296,11211 12304,11184 12313,11157 12322,11131 12332,11107 12344,11084 12356,11062 12369,11042 12382,11022 12398,11004 12413,10987 12429,10970 12446,10956 12465,10942 12483,10930 12502,10919 12523,10909 12543,10900 12564,10893 12586,10887 12608,10882 12630,10877 12653,10874 12676,10871 12699,10870 12723,10870 12762,10870 12782,10872 12800,10874 12818,10877 12837,10880 12855,10883 12872,10888 12889,10894 12907,10899 12924,10906 12941,10914 12958,10923 12976,10931 12992,10941 13009,10952 12939,11130 12904,11109 12873,11092 12859,11086 12846,11080 12834,11075 12823,11071 12812,11067 12801,11064 12790,11062 12779,11061 12765,11059 12753,11058 12740,11057 12727,11057 12713,11057 12699,11059 12686,11060 12673,11062 12661,11066 12650,11070 12638,11075 12627,11079 12617,11086 12607,11092 12598,11100 12589,11108 12580,11117 12572,11127 12565,11137 12558,11148 12552,11160 12546,11172 12535,11201 12526,11233 12517,11268 12512,11307 12507,11351 12505,11398 12504,11448 12505,11499 12508,11547 12512,11592 12518,11634 12527,11671 12537,11705 12549,11737 12562,11765 12569,11778 12577,11790 12587,11801 12595,11812 12605,11821 12615,11829 12625,11838 12636,11845 12647,11851 12660,11856 12672,11861 12685,11865 12699,11868 12714,11869 12728,11871 12743,11871 12758,11871 12774,11870 12788,11869 12800,11868 12812,11866 12824,11864 12834,11861 12845,11857 12855,11854 12866,11848 12892,11836 12923,11819 12958,11798 13025,11969 13008,11980 12992,11991 12976,12000 12959,12009 12942,12017 12926,12024 12909,12031 12891,12036 12874,12041 12856,12046 12837,12049 12817,12053 12797,12055 12777,12057 12755,12059 12733,12059 Z M 13592,10894 L 13680,11152 13758,11403 13834,11680 13921,12035 13695,12035 13662,11871 13638,11760 13325,11760 13302,11871 13269,12035 13050,12035 13134,11680 13211,11403 13290,11152 13378,10894 13592,10894 Z M 13482,11197 L 13435,11353 13371,11580 13593,11580 13530,11352 13482,11197 Z M 14613,11851 L 14613,12035 14018,12035 14018,10894 14242,10894 14242,11851 14613,11851 Z M 15536,11464 L 15533,11539 15530,11574 15526,11608 15521,11641 15515,11673 15507,11703 15499,11731 15489,11758 15479,11784 15466,11808 15454,11831 15440,11854 15425,11874 15408,11894 15391,11912 15373,11929 15354,11945 15334,11960 15313,11973 15292,11985 15268,11996 15245,12006 15220,12015 15195,12022 15170,12029 15143,12034 15117,12039 15089,12042 15061,12045 15031,12046 15002,12046 14972,12046 14940,12045 14873,12038 14800,12027 14723,12012 14723,10916 14879,10890 14911,10886 14941,10883 14971,10883 15000,10882 15030,10883 15059,10883 15088,10886 15116,10890 15143,10894 15170,10899 15195,10906 15220,10913 15245,10922 15268,10932 15292,10943 15313,10955 15333,10969 15354,10984 15373,11000 15391,11017 15408,11035 15425,11055 15440,11075 15454,11097 15466,11120 15479,11144 15489,11170 15499,11198 15507,11226 15515,11256 15521,11287 15526,11320 15530,11354 15533,11389 15536,11464 Z M 15302,11464 L 15301,11410 15298,11362 15293,11317 15289,11296 15285,11277 15279,11258 15274,11240 15269,11225 15263,11209 15257,11194 15250,11181 15242,11168 15234,11157 15225,11146 15215,11136 15205,11127 15194,11118 15183,11110 15171,11103 15157,11097 15144,11091 15130,11087 15115,11082 15099,11079 15082,11076 15064,11074 15046,11072 15027,11071 15007,11071 14996,11071 14985,11072 14962,11073 14957,11073 14952,11073 14948,11073 14947,11073 14945,11072 14944,11072 14943,11072 14942,11071 14941,11071 14941,11070 14941,11070 14941,11070 14940,11069 14940,11069 14940,11069 14940,11068 14940,11068 14940,11860 14940,11860 14940,11859 14940,11859 14940,11859 14941,11858 14941,11858 14941,11858 14941,11858 14942,11857 14942,11857 14943,11857 14944,11856 14945,11856 14947,11856 14948,11856 14952,11856 14957,11856 14962,11856 14974,11857 14985,11857 15005,11857 15025,11857 15045,11856 15064,11854 15081,11853 15099,11850 15114,11846 15129,11841 15143,11837 15156,11831 15170,11826 15182,11818 15193,11811 15204,11802 15214,11793 15224,11783 15233,11772 15241,11761 15249,11748 15256,11735 15263,11720 15269,11705 15275,11689 15280,11672 15285,11653 15289,11634 15293,11613 15298,11568 15301,11518 15302,11464 Z M 15700,12035 L 15700,10894 16298,10894 16298,11078 15924,11078 15924,11348 16262,11348 16262,11528 15924,11528 15924,11851 16325,11851 16325,12035 15700,12035 Z M 16472,10917 L 16545,10902 16614,10892 16646,10888 16678,10885 16707,10884 16737,10883 16760,10883 16782,10884 16804,10886 16825,10889 16846,10892 16867,10895 16887,10899 16906,10904 16926,10910 16944,10916 16961,10923 16979,10930 16996,10939 17012,10949 17027,10958 17042,10969 17056,10980 17068,10993 17080,11006 17092,11020 17102,11035 17112,11051 17121,11068 17129,11085 17136,11102 17142,11121 17147,11141 17152,11161 17155,11183 17157,11205 17159,11228 17159,11252 17158,11281 17156,11309 17152,11335 17146,11362 17139,11385 17130,11408 17120,11430 17108,11449 17094,11468 17081,11485 17068,11499 17055,11513 17042,11526 17028,11536 17015,11544 17009,11548 17002,11551 17002,11551 17002,11551 17002,11551 17003,11552 17004,11554 17010,11566 17034,11607 17099,11726 17164,11861 17181,11898 17198,11939 17215,11986 17234,12036 17008,12036 16954,11910 16896,11794 16835,11684 16810,11639 16801,11623 16794,11612 16793,11612 16792,11612 16790,11613 16782,11613 16759,11615 16699,11616 16692,11616 16692,12036 16472,12036 16472,10917 Z M 16692,11436 L 16721,11436 16747,11435 16770,11433 16792,11430 16812,11426 16831,11420 16839,11417 16847,11414 16856,11410 16863,11405 16870,11401 16877,11396 16883,11390 16889,11385 16894,11378 16899,11372 16904,11364 16908,11357 16911,11348 16916,11340 16921,11321 16925,11300 16927,11277 16928,11252 16927,11225 16926,11212 16925,11201 16923,11190 16921,11181 16918,11170 16914,11162 16910,11154 16907,11145 16903,11138 16898,11131 16894,11125 16889,11118 16883,11113 16878,11108 16872,11103 16866,11100 16859,11095 16851,11092 16844,11088 16836,11086 16827,11083 16819,11080 16810,11078 16801,11075 16792,11075 16781,11073 16771,11072 16760,11072 16738,11071 16706,11071 16697,11071 16694,11072 16693,11072 16692,11072 16692,11436 Z M 17786,10894 L 17875,11152 17953,11403 18029,11680 18116,12035 17890,12035 17857,11871 17833,11760 17520,11760 17497,11871 17464,12035 17245,12035 17329,11680 17406,11403 17485,11152 17573,10894 17786,10894 Z M 17677,11197 L 17630,11353 17566,11580 17787,11580 17724,11352 17677,11197 Z M 18410,11874 L 18429,11873 18446,11872 18463,11868 18478,11865 18486,11862 18492,11860 18499,11856 18505,11854 18511,11850 18517,11845 18522,11841 18527,11837 18532,11832 18536,11827 18540,11822 18544,11816 18549,11811 18552,11805 18555,11800 18557,11793 18562,11780 18565,11765 18566,11750 18567,11734 18567,11726 18566,11718 18565,11709 18564,11701 18562,11693 18560,11686 18557,11678 18554,11672 18547,11659 18542,11652 18538,11646 18534,11639 18529,11633 18524,11627 18519,11622 18514,11616 18508,11609 18502,11604 18496,11598 18489,11594 18481,11588 18474,11582 18467,11578 18404,11536 18321,11481 18310,11473 18300,11466 18288,11458 18278,11449 18268,11441 18258,11431 18239,11411 18229,11401 18220,11389 18212,11378 18204,11367 18196,11355 18189,11342 18182,11329 18176,11316 18169,11302 18165,11287 18160,11271 18157,11256 18154,11239 18153,11223 18151,11205 18151,11187 18151,11170 18153,11153 18155,11135 18158,11119 18162,11102 18166,11087 18173,11072 18179,11057 18186,11042 18194,11028 18202,11015 18211,11002 18221,10989 18231,10978 18243,10966 18255,10955 18267,10945 18280,10936 18293,10926 18308,10919 18323,10911 18337,10904 18353,10897 18370,10892 18386,10887 18403,10883 18420,10879 18439,10875 18456,10873 18474,10871 18493,10870 18512,10870 18530,10870 18548,10870 18565,10872 18582,10874 18599,10876 18616,10879 18631,10883 18647,10886 18662,10891 18679,10896 18695,10902 18711,10909 18727,10915 18745,10924 18761,10932 18778,10941 18703,11114 18671,11095 18644,11080 18631,11075 18620,11070 18608,11065 18599,11062 18590,11060 18581,11058 18572,11056 18562,11055 18553,11054 18542,11053 18532,11052 18522,11052 18506,11053 18490,11054 18474,11057 18460,11060 18447,11064 18441,11067 18435,11070 18429,11073 18424,11076 18418,11080 18413,11084 18408,11088 18404,11092 18400,11097 18396,11102 18393,11107 18390,11113 18387,11118 18384,11124 18382,11130 18380,11137 18377,11151 18376,11165 18375,11181 18375,11190 18376,11198 18377,11208 18378,11215 18380,11224 18382,11231 18385,11239 18388,11245 18392,11252 18395,11258 18399,11265 18404,11271 18408,11278 18413,11283 18419,11290 18425,11295 18431,11301 18437,11307 18443,11312 18450,11318 18457,11323 18464,11328 18472,11334 18480,11338 18552,11382 18572,11394 18592,11408 18634,11436 18645,11444 18655,11451 18665,11459 18676,11468 18695,11485 18713,11505 18722,11515 18730,11526 18739,11537 18747,11549 18754,11561 18761,11573 18767,11586 18773,11599 18778,11613 18783,11627 18787,11643 18790,11658 18793,11675 18795,11691 18796,11708 18796,11727 18796,11744 18795,11759 18793,11775 18791,11791 18788,11807 18784,11822 18779,11838 18774,11853 18768,11868 18761,11882 18754,11895 18745,11909 18736,11923 18725,11935 18715,11947 18703,11959 18691,11970 18678,11981 18663,11991 18648,12001 18633,12009 18617,12018 18599,12026 18582,12032 18564,12038 18544,12044 18525,12048 18505,12052 18483,12055 18461,12057 18439,12059 18415,12059 18394,12059 18374,12058 18353,12056 18334,12054 18315,12051 18298,12048 18279,12045 18263,12040 18247,12035 18229,12029 18212,12022 18195,12015 18177,12006 18158,11997 18122,11977 18195,11804 18231,11824 18263,11841 18290,11853 18303,11857 18314,11861 18325,11864 18335,11867 18347,11869 18359,11871 18371,11872 18384,11873 18397,11874 18410,11874 Z"/>
   </g>
  </g>
 </g>
</svg>